<svg id="Layer_2" data-name="Layer 2" xmlns="http://www.w3.org/2000/svg" viewBox="0 0 457 457"><defs><style>.cls-1{fill:#df4b38;}</style></defs><title>Login</title><path class="cls-1" d="M228.5,1C102.85,1,1,102.85,1,228.5S102.85,456,228.5,456,456,354.14,456,228.5,354.14,1,228.5,1ZM166.79,327.34a98.84,98.84,0,1,1,69.36-169.23l-20.33,17.53a72.1,72.1,0,1,0-49,125c30.37,0,53-19.66,60.32-51.71h-62L165,222.57h91.92l.15,10.2C257.09,287.36,219.21,327.34,166.79,327.34ZM389,247.87H351.1v37.94H326.89V247.87H289V223.66h37.94V185.72H351.1v37.94H389Z"/></svg>